<svg width="14" height="12" viewBox="0 0 14 12" fill="none" xmlns="http://www.w3.org/2000/svg">
<path d="M11 4C11 1.78906 8.53906 -2.38419e-07 5.5 -2.38419e-07C2.46094 -2.38419e-07 0 1.78906 0 4C0 5.26562 0.8125 6.39844 2.07812 7.13281C1.8125 7.78125 1.46875 8.08594 1.16406 8.42969C1.07813 8.53125 0.976563 8.625 1.00781 8.77344C1.03125 8.90625 1.14063 9 1.25781 9C1.26563 9 1.27344 9 1.28125 9C1.51563 8.96875 1.74219 8.92969 1.95313 8.875C2.74219 8.67187 3.47656 8.33594 4.125 7.875C4.5625 7.95312 5.02344 8 5.5 8C8.53906 8 11 6.21094 11 4ZM14 6C14 4.69531 13.1406 3.53906 11.8203 2.8125C11.9375 3.19531 12 3.59375 12 4C12 5.39844 11.2813 6.6875 9.97656 7.64062C8.76563 8.51562 7.17969 9 5.5 9C5.27344 9 5.03906 8.98437 4.8125 8.96875C5.78906 9.60937 7.08594 10 8.5 10C8.97656 10 9.4375 9.95312 9.875 9.875C10.5234 10.3359 11.2578 10.6719 12.0469 10.875C12.2578 10.9297 12.4844 10.9688 12.7188 11C12.8438 11.0156 12.9609 10.9141 12.9922 10.7734C13.0234 10.625 12.9219 10.5313 12.8359 10.4297C12.5313 10.0859 12.1875 9.78125 11.9219 9.13281C13.1875 8.39844 14 7.27344 14 6Z" fill="white"/>
</svg>
