<svg width="10" height="10" viewBox="0 0 10 10" fill="none" xmlns="http://www.w3.org/2000/svg">
<path d="M3.88863 0C1.74231 0 0.00201416 1.7403 0.00201416 3.88663C0.00201416 6.03297 1.74231 7.77327 3.88865 7.77327C4.714 7.77327 5.47942 7.51583 6.10861 7.07733L6.10906 7.07687L8.99157 9.95938C9.04506 10.0129 9.13011 10.0142 9.18499 9.95938L9.96186 9.18251C10.0154 9.12902 10.0126 9.04032 9.96141 8.9891L7.07933 6.10704C7.51784 5.4774 7.77527 4.71197 7.77527 3.88663C7.77527 1.7403 6.03497 0 3.88863 0ZM3.88863 6.85876C2.2471 6.85876 0.916503 5.52817 0.916503 3.88663C0.916503 2.2451 2.24711 0.914505 3.88863 0.914505C5.53015 0.914505 6.86076 2.2451 6.86076 3.88663C6.86076 5.52817 5.53017 6.85876 3.88863 6.85876Z" fill="#C6C6C6"/>
</svg>
