<svg width="16" height="16" viewBox="0 0 16 16" fill="none" xmlns="http://www.w3.org/2000/svg">
<path d="M16 6C16 5.84821 15.9375 5.70536 15.8304 5.59821L11.2589 1.02678C11.1518 0.919642 11.0089 0.857142 10.8571 0.857142C10.5446 0.857142 10.2857 1.11607 10.2857 1.42857V3.71428H8.28572C5.35714 3.71428 1.71429 4.23214 0.473214 7.3125C0.0982143 8.25893 0 9.28571 0 10.2857C0 11.5357 0.625 13.1696 1.13393 14.3125C1.23214 14.5179 1.33036 14.8036 1.46429 14.9911C1.52679 15.0804 1.58929 15.1429 1.71429 15.1429C1.89286 15.1429 2 15 2 14.8304C2 14.6875 1.96429 14.5268 1.95536 14.3839C1.92857 14.0179 1.91071 13.6518 1.91071 13.2857C1.91071 9.02679 4.4375 8.28571 8.28572 8.28571H10.2857V10.5714C10.2857 10.8839 10.5446 11.1429 10.8571 11.1429C11.0089 11.1429 11.1518 11.0804 11.2589 10.9732L15.8304 6.40179C15.9375 6.29464 16 6.15179 16 6Z" fill="white"/>
</svg>
