<svg width="15" height="14" viewBox="0 0 15 14" fill="none" xmlns="http://www.w3.org/2000/svg">
<path d="M4.63281 7C4.22656 6.41406 4 5.71094 4 5C4 4.82812 4.01563 4.65625 4.03906 4.48437C3.70313 4.60156 3.35938 4.66406 3 4.66406C1.94531 4.66406 1.13281 4 0.96875 4C-0.0234375 4 0 6.125 0 6.75781C0 7.625 0.734375 8 1.51563 8H2.5625C3.08594 7.375 3.82031 7.02344 4.63281 7ZM13 11.9766C13 10.2109 12.5859 7.5 10.2969 7.5C10.0313 7.5 9.0625 8.58594 7.5 8.58594C5.9375 8.58594 4.96875 7.5 4.70313 7.5C2.41406 7.5 2 10.2109 2 11.9766C2 13.2422 2.83594 14 4.08594 14H10.9141C12.1641 14 13 13.2422 13 11.9766ZM5 2C5 0.898437 4.10156 -9.53674e-07 3 -9.53674e-07C1.89844 -9.53674e-07 1 0.898437 1 2C1 3.10156 1.89844 4 3 4C4.10156 4 5 3.10156 5 2ZM10.5 5C10.5 3.34375 9.15625 2 7.5 2C5.84375 2 4.5 3.34375 4.5 5C4.5 6.65625 5.84375 8 7.5 8C9.15625 8 10.5 6.65625 10.5 5ZM15 6.75781C15 6.125 15.0234 4 14.0313 4C13.8672 4 13.0547 4.66406 12 4.66406C11.6406 4.66406 11.2969 4.60156 10.9609 4.48437C10.9844 4.65625 11 4.82812 11 5C11 5.71094 10.7734 6.41406 10.3672 7C11.1797 7.02344 11.9141 7.375 12.4375 8H13.4844C14.2656 8 15 7.625 15 6.75781ZM14 2C14 0.898437 13.1016 -9.53674e-07 12 -9.53674e-07C10.8984 -9.53674e-07 10 0.898437 10 2C10 3.10156 10.8984 4 12 4C13.1016 4 14 3.10156 14 2Z" fill="white"/>
</svg>
